<svg width="201" height="217" viewBox="0 0 201 217" fill="none" xmlns="http://www.w3.org/2000/svg">
<path d="M0 18C0 8.05887 8.05888 0 18 0H183C192.941 0 201 8.05888 201 18V199C201 208.941 192.941 217 183 217H18C8.05887 217 0 208.941 0 199V18Z" fill="url(#paint0_linear_2056_261)"/>
<path d="M162.197 137.639C160.318 158.602 123.64 188.301 100.568 198V18C112.568 41.2771 154.062 47.3374 172.134 49.2651C170.809 70.229 164.077 116.675 162.197 137.639Z" fill="url(#paint1_linear_2056_261)"/>
<path d="M38.9369 137.639C40.8165 158.602 77.4954 188.301 100.568 198V18C88.5676 41.2771 47.0723 47.3374 29 49.2651C30.3253 70.229 37.0574 116.675 38.9369 137.639Z" fill="url(#paint2_linear_2056_261)"/>
<path d="M71.8369 96.2254H129.784V143H71.8369V96.2254Z" fill="url(#paint3_linear_2056_261)"/>
<path d="M101 62L142 103.356H60L101 62Z" fill="url(#paint4_linear_2056_261)"/>
<defs>
<linearGradient id="paint0_linear_2056_261" x1="32" y1="-7.28445" x2="148.209" y2="244.587" gradientUnits="userSpaceOnUse">
<stop stop-color="#1E1E1E"/>
<stop offset="1" stop-color="#282828"/>
</linearGradient>
<linearGradient id="paint1_linear_2056_261" x1="177.194" y1="32.0964" x2="131.571" y2="189.886" gradientUnits="userSpaceOnUse">
<stop stop-color="#073077"/>
<stop offset="1" stop-color="#386682"/>
</linearGradient>
<linearGradient id="paint2_linear_2056_261" x1="52.3132" y1="32.6386" x2="100.566" y2="163.12" gradientUnits="userSpaceOnUse">
<stop stop-color="#E3C643"/>
<stop offset="1" stop-color="#FFBB00"/>
</linearGradient>
<linearGradient id="paint3_linear_2056_261" x1="65.5879" y1="83.6761" x2="133.442" y2="145.198" gradientUnits="userSpaceOnUse">
<stop offset="0.485577" stop-color="white"/>
<stop offset="0.485677" stop-color="#EBEBEB"/>
</linearGradient>
<linearGradient id="paint4_linear_2056_261" x1="65.5879" y1="83.6761" x2="133.442" y2="145.198" gradientUnits="userSpaceOnUse">
<stop offset="0.485577" stop-color="white"/>
<stop offset="0.485677" stop-color="#EBEBEB"/>
</linearGradient>
</defs>
</svg>
