<svg width="201" height="283" viewBox="0 0 201 283" fill="none" xmlns="http://www.w3.org/2000/svg">
<path d="M0 18C0 8.05887 8.05888 0 18 0H183C192.941 0 201 8.05888 201 18V265C201 274.941 192.941 283 183 283H18C8.05887 283 0 274.941 0 265V18Z" fill="url(#paint0_linear_2056_257)"/>
<path d="M162.197 140.639C160.318 161.602 123.64 191.301 100.568 201V21C112.568 44.2771 154.062 50.3374 172.134 52.2651C170.809 73.229 164.077 119.675 162.197 140.639Z" fill="url(#paint1_linear_2056_257)"/>
<path d="M38.9369 140.639C40.8165 161.602 77.4954 191.301 100.568 201V21C88.5676 44.2771 47.0723 50.3374 29 52.2651C30.3253 73.229 37.0574 119.675 38.9369 140.639Z" fill="url(#paint2_linear_2056_257)"/>
<path d="M71.8369 99.2254H129.784V146H71.8369V99.2254Z" fill="url(#paint3_linear_2056_257)"/>
<path d="M101 65L142 106.356H60L101 65Z" fill="url(#paint4_linear_2056_257)"/>
<path d="M40.1592 229.499C40.0459 230.632 39.4229 231.245 38.29 231.34C37.7614 231.34 37.2988 231.17 36.9023 230.83C36.5247 230.471 36.3359 230.028 36.3359 229.499V216.075C36.3548 215.547 36.5531 215.112 36.9307 214.772C37.3083 214.414 37.7614 214.234 38.29 214.234H50.1562C50.2695 214.234 50.3828 214.244 50.4961 214.263H50.666C51.9876 214.3 53.0732 214.603 53.9229 215.169C54.7725 215.735 55.3861 216.387 55.7637 217.123C56.1413 217.84 56.3301 218.567 56.3301 219.304C56.3301 220.059 56.1413 220.805 55.7637 221.541C55.4049 222.258 54.7913 222.9 53.9229 223.467C53.0732 224.033 51.9876 224.335 50.666 224.373H45.6816C45.8327 225.317 46.1442 226.016 46.6162 226.469C47.0693 226.922 47.6452 227.148 48.3438 227.148H54.4609C54.9896 227.167 55.4238 227.366 55.7637 227.743C56.1224 228.121 56.3018 228.574 56.3018 229.103C56.2829 229.612 56.0941 230.047 55.7354 230.405C55.3955 230.745 54.9707 230.924 54.4609 230.943H47.834C46.4368 230.962 45.1719 230.415 44.0391 229.301C42.9062 228.187 42.2171 226.865 41.9717 225.336C41.6318 223.637 41.4619 222.683 41.4619 222.476C41.4619 221.947 41.6413 221.503 42 221.145C42.3776 220.767 42.8307 220.578 43.3594 220.578H50.8359C51.1947 220.559 51.4873 220.484 51.7139 220.352C51.9593 220.201 52.1387 220.04 52.252 219.87C52.3652 219.681 52.4219 219.493 52.4219 219.304C52.4219 219.115 52.3652 218.936 52.252 218.766C52.1387 218.577 51.9593 218.416 51.7139 218.284C51.4873 218.133 51.1947 218.048 50.8359 218.029H40.8955C40.4046 218.048 40.1592 218.294 40.1592 218.766V229.499Z" fill="white"/>
<path d="M65.1943 230.943C63.5329 230.887 62.2773 230.5 61.4277 229.782C60.5781 229.046 59.9645 228.225 59.5869 227.318C59.2093 226.393 59.0205 225.459 59.0205 224.515C59.0205 223.533 59.1999 222.589 59.5586 221.683C59.9362 220.757 60.5498 219.936 61.3994 219.219C62.2679 218.482 63.363 218.105 64.6846 218.086H75.4463C75.9749 218.086 76.4186 218.265 76.7773 218.624C77.1549 218.964 77.3438 219.379 77.3438 219.87C77.3438 220.38 77.1549 220.814 76.7773 221.173C76.4186 221.513 75.9749 221.683 75.4463 221.683H64.8545C64.4391 221.683 64.071 221.824 63.75 222.107C63.4479 222.391 63.2214 222.759 63.0703 223.212C62.9382 223.665 62.8721 224.109 62.8721 224.543C62.8721 225.015 62.9382 225.478 63.0703 225.931C63.2214 226.384 63.4479 226.752 63.75 227.035C64.071 227.299 64.4391 227.441 64.8545 227.46H75.4463C75.9749 227.46 76.4186 227.63 76.7773 227.97C77.1549 228.31 77.3438 228.715 77.3438 229.188C77.3438 229.678 77.1549 230.094 76.7773 230.434C76.4186 230.773 75.9749 230.943 75.4463 230.943H65.1943ZM77.0039 224.458C77.0039 224.817 76.8434 225.128 76.5225 225.393C76.2393 225.638 75.8805 225.761 75.4463 225.761H66.1855C65.7513 225.761 65.3831 225.638 65.0811 225.393C64.779 225.128 64.6279 224.817 64.6279 224.458C64.6279 224.118 64.779 223.816 65.0811 223.552C65.3831 223.306 65.7513 223.184 66.1855 223.184H75.4463C75.8805 223.184 76.2487 223.316 76.5508 223.58C76.8529 223.826 77.0039 224.118 77.0039 224.458Z" fill="white"/>
<path d="M87.0859 231.283C86.5762 231.264 86.1419 231.085 85.7832 230.745C85.4245 230.386 85.2357 229.952 85.2168 229.442V225.619H81.96C81.4313 225.619 80.9782 225.44 80.6006 225.081C80.2419 224.703 80.0625 224.25 80.0625 223.722C80.0625 223.193 80.2513 222.749 80.6289 222.391C80.9876 222.013 81.4313 221.824 81.96 221.824H85.2168C85.2734 220.71 85.4622 219.634 85.7832 218.596C86.1608 217.406 86.7744 216.406 87.624 215.594C88.4925 214.763 89.5876 214.31 90.9092 214.234H98.7822C99.292 214.253 99.7168 214.442 100.057 214.801C100.415 215.141 100.604 215.565 100.623 216.075C100.623 216.604 100.444 217.057 100.085 217.435C99.7451 217.812 99.3109 218.01 98.7822 218.029H91.8721C91.1546 218.067 90.5599 218.341 90.0879 218.851C89.6159 219.36 89.3232 219.936 89.21 220.578C89.1156 220.993 89.0589 221.409 89.04 221.824H98.6689C99.1976 221.824 99.6413 222.013 100 222.391C100.378 222.749 100.566 223.193 100.566 223.722C100.566 224.25 100.387 224.703 100.028 225.081C99.6507 225.44 99.1976 225.619 98.6689 225.619H89.04V229.442C89.0212 229.971 88.8229 230.415 88.4453 230.773C88.0677 231.113 87.6146 231.283 87.0859 231.283Z" fill="white"/>
<path d="M112.603 231.425C111.621 231.425 110.648 231.312 109.686 231.085C108.742 230.858 107.835 230.528 106.967 230.094C106.098 229.641 105.334 229.046 104.673 228.31C104.012 227.573 103.653 226.695 103.597 225.676V219.644C103.597 219.115 103.785 218.681 104.163 218.341C104.56 217.982 105.022 217.803 105.551 217.803C106.684 217.897 107.297 218.511 107.392 219.644V224.798C107.429 225.383 107.646 225.874 108.043 226.271C108.458 226.648 108.911 226.95 109.402 227.177C109.912 227.403 110.431 227.573 110.96 227.687C111.507 227.8 112.055 227.856 112.603 227.856C113.15 227.856 113.688 227.8 114.217 227.687C114.764 227.573 115.284 227.403 115.774 227.177C116.284 226.95 116.737 226.648 117.134 226.271C117.549 225.874 117.776 225.383 117.813 224.798V219.644C117.813 219.115 118.002 218.681 118.38 218.341C118.776 217.982 119.239 217.803 119.768 217.803C120.9 217.897 121.523 218.511 121.637 219.644V225.676C121.58 226.695 121.212 227.573 120.532 228.31C119.871 229.046 119.107 229.641 118.238 230.094C117.37 230.528 116.454 230.858 115.491 231.085C114.547 231.312 113.584 231.425 112.603 231.425Z" fill="white"/>
<path d="M141.149 222.617C141.149 222.145 140.904 221.9 140.413 221.881H130.501C130.142 221.9 129.831 222.06 129.566 222.362C129.302 222.646 129.104 222.985 128.972 223.382C128.858 223.759 128.802 224.146 128.802 224.543C128.802 224.921 128.858 225.308 128.972 225.704C129.104 226.082 129.302 226.422 129.566 226.724C129.831 227.007 130.142 227.148 130.501 227.148H137.751C138.28 227.148 138.723 227.337 139.082 227.715C139.46 228.074 139.648 228.517 139.648 229.046C139.648 229.575 139.46 230.018 139.082 230.377C138.723 230.755 138.28 230.943 137.751 230.943H130.614C129.293 230.924 128.198 230.556 127.329 229.839C126.479 229.103 125.866 228.281 125.488 227.375C125.13 226.45 124.95 225.496 124.95 224.515C124.95 223.571 125.139 222.646 125.517 221.739C125.894 220.814 126.508 219.993 127.357 219.275C128.207 218.539 129.463 218.143 131.124 218.086H143.019C143.547 218.086 144 218.265 144.378 218.624C144.756 218.964 144.954 219.398 144.973 219.927V228.876C144.973 230.386 144.765 231.812 144.35 233.152C143.972 234.342 143.349 235.342 142.48 236.154C141.631 236.985 140.545 237.438 139.224 237.514H129.425C128.915 237.495 128.481 237.306 128.122 236.947C127.782 236.607 127.603 236.183 127.584 235.673C127.584 235.144 127.754 234.691 128.094 234.313C128.452 233.936 128.896 233.738 129.425 233.719H138.261C138.978 233.681 139.573 233.407 140.045 232.897C140.517 232.388 140.819 231.793 140.951 231.113C141.083 230.434 141.149 229.556 141.149 228.479V222.617Z" fill="white"/>
<path d="M154.602 230.943C152.94 230.887 151.685 230.5 150.835 229.782C149.985 229.046 149.372 228.225 148.994 227.318C148.617 226.393 148.428 225.459 148.428 224.515C148.428 223.533 148.607 222.589 148.966 221.683C149.343 220.757 149.957 219.936 150.807 219.219C151.675 218.482 152.77 218.105 154.092 218.086H164.854C165.382 218.086 165.826 218.265 166.185 218.624C166.562 218.964 166.751 219.379 166.751 219.87C166.751 220.38 166.562 220.814 166.185 221.173C165.826 221.513 165.382 221.683 164.854 221.683H154.262C153.846 221.683 153.478 221.824 153.157 222.107C152.855 222.391 152.629 222.759 152.478 223.212C152.345 223.665 152.279 224.109 152.279 224.543C152.279 225.015 152.345 225.478 152.478 225.931C152.629 226.384 152.855 226.752 153.157 227.035C153.478 227.299 153.846 227.441 154.262 227.46H164.854C165.382 227.46 165.826 227.63 166.185 227.97C166.562 228.31 166.751 228.715 166.751 229.188C166.751 229.678 166.562 230.094 166.185 230.434C165.826 230.773 165.382 230.943 164.854 230.943H154.602ZM166.411 224.458C166.411 224.817 166.251 225.128 165.93 225.393C165.646 225.638 165.288 225.761 164.854 225.761H155.593C155.159 225.761 154.79 225.638 154.488 225.393C154.186 225.128 154.035 224.817 154.035 224.458C154.035 224.118 154.186 223.816 154.488 223.552C154.79 223.306 155.159 223.184 155.593 223.184H164.854C165.288 223.184 165.656 223.316 165.958 223.58C166.26 223.826 166.411 224.118 166.411 224.458Z" fill="white"/>
<path d="M86.8398 266.779C85.5534 266.779 84.2793 266.631 83.0176 266.334C81.7806 266.037 80.5931 265.604 79.4551 265.035C78.3171 264.441 77.3151 263.662 76.4492 262.697C75.5833 261.732 75.1133 260.582 75.0391 259.246V245.85C75.0391 245.157 75.2865 244.588 75.7812 244.143C76.3008 243.673 76.9069 243.438 77.5996 243.438C79.084 243.561 79.888 244.365 80.0117 245.85V258.096C80.0612 258.863 80.3457 259.506 80.8652 260.025C81.4095 260.52 82.0033 260.916 82.6465 261.213C83.3145 261.51 83.9948 261.732 84.6875 261.881C85.4049 262.029 86.1224 262.104 86.8398 262.104C87.5573 262.104 88.2624 262.029 88.9551 261.881C89.6725 261.732 90.3529 261.51 90.9961 261.213C91.6641 260.916 92.2578 260.52 92.7773 260.025C93.3216 259.506 93.6185 258.863 93.668 258.096V245.85C93.668 245.157 93.9154 244.588 94.4102 244.143C94.9297 243.673 95.5358 243.438 96.2285 243.438C97.7129 243.561 98.5293 244.365 98.6777 245.85V259.246C98.6035 260.582 98.1211 261.732 97.2305 262.697C96.3646 263.662 95.3626 264.441 94.2246 265.035C93.0866 265.604 91.8867 266.037 90.625 266.334C89.388 266.631 88.1263 266.779 86.8398 266.779Z" fill="#FFBB00"/>
<path d="M111.963 260.174C111.963 259.481 112.198 258.9 112.668 258.43C113.163 257.935 113.757 257.688 114.449 257.688H120.127L119.162 254.941C118.766 253.927 118.37 252.975 117.975 252.084C117.604 251.169 117.171 250.34 116.676 249.598C116.23 248.855 115.723 248.46 115.154 248.41C114.561 248.46 114.029 248.855 113.559 249.598C113.089 250.34 112.656 251.169 112.26 252.084C111.889 252.975 111.505 253.927 111.109 254.941L107.584 264.59C107.337 265.109 107.015 265.542 106.619 265.889C106.248 266.21 105.679 266.371 104.912 266.371C104.195 266.371 103.601 266.124 103.131 265.629C102.686 265.134 102.488 264.54 102.537 263.848C102.562 263.526 102.636 263.229 102.76 262.957L106.842 252.418C107.98 249.647 109.118 247.408 110.256 245.701C111.369 244.019 113.002 243.165 115.154 243.141C117.282 243.165 118.902 244.019 120.016 245.701C121.154 247.359 122.292 249.598 123.43 252.418L127.512 262.957C127.635 263.229 127.71 263.526 127.734 263.848C127.784 264.54 127.574 265.134 127.104 265.629C126.658 266.124 126.077 266.371 125.359 266.371C124.543 266.371 123.937 266.21 123.541 265.889C123.17 265.542 122.861 265.109 122.613 264.59L121.908 262.66H114.449C113.757 262.66 113.175 262.413 112.705 261.918C112.21 261.448 111.963 260.867 111.963 260.174Z" fill="#0088FF"/>
<defs>
<linearGradient id="paint0_linear_2056_257" x1="32" y1="-9.5" x2="208" y2="283" gradientUnits="userSpaceOnUse">
<stop stop-color="#1E1E1E"/>
<stop offset="1" stop-color="#282828"/>
</linearGradient>
<linearGradient id="paint1_linear_2056_257" x1="177.194" y1="35.0964" x2="131.571" y2="192.886" gradientUnits="userSpaceOnUse">
<stop stop-color="#073077"/>
<stop offset="1" stop-color="#386682"/>
</linearGradient>
<linearGradient id="paint2_linear_2056_257" x1="52.3132" y1="35.6386" x2="100.566" y2="166.12" gradientUnits="userSpaceOnUse">
<stop stop-color="#E3C643"/>
<stop offset="1" stop-color="#FFBB00"/>
</linearGradient>
<linearGradient id="paint3_linear_2056_257" x1="65.5879" y1="86.6761" x2="133.442" y2="148.198" gradientUnits="userSpaceOnUse">
<stop offset="0.485577" stop-color="white"/>
<stop offset="0.485677" stop-color="#EBEBEB"/>
</linearGradient>
<linearGradient id="paint4_linear_2056_257" x1="65.5879" y1="86.6761" x2="133.442" y2="148.198" gradientUnits="userSpaceOnUse">
<stop offset="0.485577" stop-color="white"/>
<stop offset="0.485677" stop-color="#EBEBEB"/>
</linearGradient>
</defs>
</svg>
