<svg width="175" height="25" viewBox="0 0 175 25" fill="none" xmlns="http://www.w3.org/2000/svg">
<path d="M4.7334 16.499C4.62012 17.6318 3.99707 18.2454 2.86426 18.3398C2.33561 18.3398 1.87305 18.1699 1.47656 17.8301C1.09896 17.4714 0.910156 17.0277 0.910156 16.499V3.0752C0.929036 2.54655 1.12728 2.1123 1.50488 1.77246C1.88249 1.41374 2.33561 1.23438 2.86426 1.23438H14.7305C14.8438 1.23438 14.957 1.24382 15.0703 1.2627H15.2402C16.5618 1.30046 17.6475 1.60254 18.4971 2.16895C19.3467 2.73535 19.9603 3.38672 20.3379 4.12305C20.7155 4.84049 20.9043 5.56738 20.9043 6.30371C20.9043 7.05892 20.7155 7.80469 20.3379 8.54102C19.9792 9.25846 19.3656 9.90039 18.4971 10.4668C17.6475 11.0332 16.5618 11.3353 15.2402 11.373H10.2559C10.4069 12.3171 10.7184 13.0156 11.1904 13.4688C11.6436 13.9219 12.2194 14.1484 12.918 14.1484H19.0352C19.5638 14.1673 19.998 14.3656 20.3379 14.7432C20.6966 15.1208 20.876 15.5739 20.876 16.1025C20.8571 16.6123 20.6683 17.0465 20.3096 17.4053C19.9697 17.7451 19.5449 17.9245 19.0352 17.9434H12.4082C11.0111 17.9622 9.74609 17.4147 8.61328 16.3008C7.48047 15.1868 6.79134 13.8652 6.5459 12.3359C6.20605 10.6367 6.03613 9.68327 6.03613 9.47559C6.03613 8.94694 6.21549 8.50326 6.57422 8.14453C6.95182 7.76693 7.40495 7.57812 7.93359 7.57812H15.4102C15.7689 7.55924 16.0615 7.48372 16.2881 7.35156C16.5335 7.20052 16.7129 7.04004 16.8262 6.87012C16.9395 6.68132 16.9961 6.49251 16.9961 6.30371C16.9961 6.11491 16.9395 5.93555 16.8262 5.76562C16.7129 5.57682 16.5335 5.41634 16.2881 5.28418C16.0615 5.13314 15.7689 5.04818 15.4102 5.0293H5.46973C4.97884 5.04818 4.7334 5.29362 4.7334 5.76562V16.499Z" fill="white"/>
<path d="M29.7686 17.9434C28.1071 17.8867 26.8516 17.4997 26.002 16.7822C25.1523 16.0459 24.5387 15.2246 24.1611 14.3184C23.7835 13.3932 23.5947 12.4587 23.5947 11.5146C23.5947 10.5329 23.7741 9.58887 24.1328 8.68262C24.5104 7.75749 25.124 6.9362 25.9736 6.21875C26.8421 5.48242 27.9372 5.10482 29.2588 5.08594H40.0205C40.5492 5.08594 40.9928 5.2653 41.3516 5.62402C41.7292 5.96387 41.918 6.37923 41.918 6.87012C41.918 7.37988 41.7292 7.81413 41.3516 8.17285C40.9928 8.5127 40.5492 8.68262 40.0205 8.68262H29.4287C29.0133 8.68262 28.6452 8.82422 28.3242 9.10742C28.0221 9.39062 27.7956 9.75879 27.6445 10.2119C27.5124 10.665 27.4463 11.1087 27.4463 11.543C27.4463 12.015 27.5124 12.4775 27.6445 12.9307C27.7956 13.3838 28.0221 13.752 28.3242 14.0352C28.6452 14.2995 29.0133 14.4411 29.4287 14.46H40.0205C40.5492 14.46 40.9928 14.6299 41.3516 14.9697C41.7292 15.3096 41.918 15.7155 41.918 16.1875C41.918 16.6784 41.7292 17.0938 41.3516 17.4336C40.9928 17.7734 40.5492 17.9434 40.0205 17.9434H29.7686ZM41.5781 11.458C41.5781 11.8167 41.4176 12.1283 41.0967 12.3926C40.8135 12.638 40.4548 12.7607 40.0205 12.7607H30.7598C30.3255 12.7607 29.9574 12.638 29.6553 12.3926C29.3532 12.1283 29.2021 11.8167 29.2021 11.458C29.2021 11.1182 29.3532 10.8161 29.6553 10.5518C29.9574 10.3063 30.3255 10.1836 30.7598 10.1836H40.0205C40.4548 10.1836 40.8229 10.3158 41.125 10.5801C41.4271 10.8255 41.5781 11.1182 41.5781 11.458Z" fill="white"/>
<path d="M51.6602 18.2832C51.1504 18.2643 50.7161 18.085 50.3574 17.7451C49.9987 17.3864 49.8099 16.9521 49.791 16.4424V12.6191H46.5342C46.0055 12.6191 45.5524 12.4398 45.1748 12.0811C44.8161 11.7035 44.6367 11.2503 44.6367 10.7217C44.6367 10.193 44.8255 9.74935 45.2031 9.39062C45.5618 9.01302 46.0055 8.82422 46.5342 8.82422H49.791C49.8477 7.71029 50.0365 6.63411 50.3574 5.5957C50.735 4.40625 51.3486 3.4056 52.1982 2.59375C53.0667 1.76302 54.1618 1.3099 55.4834 1.23438H63.3564C63.8662 1.25326 64.291 1.44206 64.6309 1.80078C64.9896 2.14062 65.1784 2.56543 65.1973 3.0752C65.1973 3.60384 65.0179 4.05697 64.6592 4.43457C64.3193 4.81217 63.8851 5.01042 63.3564 5.0293H56.4463C55.7288 5.06706 55.1341 5.34082 54.6621 5.85059C54.1901 6.36035 53.8975 6.9362 53.7842 7.57812C53.6898 7.99349 53.6331 8.40885 53.6143 8.82422H63.2432C63.7718 8.82422 64.2155 9.01302 64.5742 9.39062C64.9518 9.74935 65.1406 10.193 65.1406 10.7217C65.1406 11.2503 64.9613 11.7035 64.6025 12.0811C64.2249 12.4398 63.7718 12.6191 63.2432 12.6191H53.6143V16.4424C53.5954 16.971 53.3971 17.4147 53.0195 17.7734C52.6419 18.1133 52.1888 18.2832 51.6602 18.2832Z" fill="white"/>
<path d="M77.1768 18.4248C76.195 18.4248 75.2227 18.3115 74.2598 18.085C73.3158 17.8584 72.4095 17.528 71.541 17.0938C70.6725 16.6406 69.9079 16.0459 69.2471 15.3096C68.5863 14.5732 68.2275 13.6953 68.1709 12.6758V6.64355C68.1709 6.11491 68.3597 5.68066 68.7373 5.34082C69.1338 4.9821 69.5964 4.80273 70.125 4.80273C71.2578 4.89714 71.8714 5.51074 71.9658 6.64355V11.7979C72.0036 12.3831 72.2207 12.874 72.6172 13.2705C73.0326 13.6481 73.4857 13.9502 73.9766 14.1768C74.4863 14.4033 75.0055 14.5732 75.5342 14.6865C76.0817 14.7998 76.6292 14.8564 77.1768 14.8564C77.7243 14.8564 78.2624 14.7998 78.791 14.6865C79.3385 14.5732 79.8577 14.4033 80.3486 14.1768C80.8584 13.9502 81.3115 13.6481 81.708 13.2705C82.1234 12.874 82.3499 12.3831 82.3877 11.7979V6.64355C82.3877 6.11491 82.5765 5.68066 82.9541 5.34082C83.3506 4.9821 83.8132 4.80273 84.3418 4.80273C85.4746 4.89714 86.0977 5.51074 86.2109 6.64355V12.6758C86.1543 13.6953 85.7861 14.5732 85.1064 15.3096C84.4456 16.0459 83.681 16.6406 82.8125 17.0938C81.944 17.528 81.0283 17.8584 80.0654 18.085C79.1214 18.3115 78.1585 18.4248 77.1768 18.4248Z" fill="white"/>
<path d="M105.724 9.61719C105.724 9.14518 105.478 8.89974 104.987 8.88086H95.0752C94.7165 8.89974 94.4049 9.06022 94.1406 9.3623C93.8763 9.64551 93.6781 9.98535 93.5459 10.3818C93.4326 10.7594 93.376 11.1465 93.376 11.543C93.376 11.9206 93.4326 12.3076 93.5459 12.7041C93.6781 13.0817 93.8763 13.4215 94.1406 13.7236C94.4049 14.0068 94.7165 14.1484 95.0752 14.1484H102.325C102.854 14.1484 103.298 14.3372 103.656 14.7148C104.034 15.0736 104.223 15.5173 104.223 16.0459C104.223 16.5745 104.034 17.0182 103.656 17.377C103.298 17.7546 102.854 17.9434 102.325 17.9434H95.1885C93.8669 17.9245 92.7718 17.5563 91.9033 16.8389C91.0537 16.1025 90.4401 15.2812 90.0625 14.375C89.7038 13.4499 89.5244 12.4964 89.5244 11.5146C89.5244 10.5706 89.7132 9.64551 90.0908 8.73926C90.4684 7.81413 91.082 6.99284 91.9316 6.27539C92.7812 5.53906 94.0368 5.14258 95.6982 5.08594H107.593C108.121 5.08594 108.575 5.2653 108.952 5.62402C109.33 5.96387 109.528 6.39811 109.547 6.92676V15.876C109.547 17.3864 109.339 18.8118 108.924 20.1523C108.546 21.3418 107.923 22.3424 107.055 23.1543C106.205 23.985 105.119 24.4382 103.798 24.5137H93.999C93.4893 24.4948 93.055 24.306 92.6963 23.9473C92.3564 23.6074 92.1771 23.1826 92.1582 22.6729C92.1582 22.1442 92.3281 21.6911 92.668 21.3135C93.0267 20.9359 93.4704 20.7376 93.999 20.7188H102.835C103.552 20.681 104.147 20.4072 104.619 19.8975C105.091 19.3877 105.393 18.793 105.525 18.1133C105.658 17.4336 105.724 16.5557 105.724 15.4795V9.61719Z" fill="white"/>
<path d="M119.176 17.9434C117.514 17.8867 116.259 17.4997 115.409 16.7822C114.56 16.0459 113.946 15.2246 113.568 14.3184C113.191 13.3932 113.002 12.4587 113.002 11.5146C113.002 10.5329 113.181 9.58887 113.54 8.68262C113.918 7.75749 114.531 6.9362 115.381 6.21875C116.249 5.48242 117.344 5.10482 118.666 5.08594H129.428C129.956 5.08594 130.4 5.2653 130.759 5.62402C131.136 5.96387 131.325 6.37923 131.325 6.87012C131.325 7.37988 131.136 7.81413 130.759 8.17285C130.4 8.5127 129.956 8.68262 129.428 8.68262H118.836C118.421 8.68262 118.052 8.82422 117.731 9.10742C117.429 9.39062 117.203 9.75879 117.052 10.2119C116.92 10.665 116.854 11.1087 116.854 11.543C116.854 12.015 116.92 12.4775 117.052 12.9307C117.203 13.3838 117.429 13.752 117.731 14.0352C118.052 14.2995 118.421 14.4411 118.836 14.46H129.428C129.956 14.46 130.4 14.6299 130.759 14.9697C131.136 15.3096 131.325 15.7155 131.325 16.1875C131.325 16.6784 131.136 17.0938 130.759 17.4336C130.4 17.7734 129.956 17.9434 129.428 17.9434H119.176ZM130.985 11.458C130.985 11.8167 130.825 12.1283 130.504 12.3926C130.221 12.638 129.862 12.7607 129.428 12.7607H120.167C119.733 12.7607 119.365 12.638 119.062 12.3926C118.76 12.1283 118.609 11.8167 118.609 11.458C118.609 11.1182 118.76 10.8161 119.062 10.5518C119.365 10.3063 119.733 10.1836 120.167 10.1836H129.428C129.862 10.1836 130.23 10.3158 130.532 10.5801C130.834 10.8255 130.985 11.1182 130.985 11.458Z" fill="white"/>
<path d="M143.616 18.5947C142.634 18.5947 141.662 18.4814 140.699 18.2549C139.755 18.0283 138.849 17.6979 137.98 17.2637C137.112 16.8105 136.347 16.2158 135.687 15.4795C135.026 14.7432 134.667 13.8652 134.61 12.8457V2.62207C134.61 2.09342 134.799 1.65918 135.177 1.31934C135.573 0.960612 136.036 0.78125 136.564 0.78125C137.697 0.875651 138.311 1.48926 138.405 2.62207V11.9678C138.443 12.5531 138.66 13.0439 139.057 13.4404C139.472 13.818 139.925 14.1201 140.416 14.3467C140.926 14.5732 141.445 14.7432 141.974 14.8564C142.521 14.9697 143.069 15.0264 143.616 15.0264C144.164 15.0264 144.702 14.9697 145.23 14.8564C145.778 14.7432 146.297 14.5732 146.788 14.3467C147.298 14.1201 147.751 13.818 148.147 13.4404C148.563 13.0439 148.789 12.5531 148.827 11.9678V2.62207C148.827 2.09342 149.016 1.65918 149.394 1.31934C149.79 0.960612 150.253 0.78125 150.781 0.78125C151.914 0.875651 152.537 1.48926 152.65 2.62207V12.8457C152.594 13.8652 152.226 14.7432 151.546 15.4795C150.885 16.2158 150.12 16.8105 149.252 17.2637C148.383 17.6979 147.468 18.0283 146.505 18.2549C145.561 18.4814 144.598 18.5947 143.616 18.5947Z" fill="#FFBB00"/>
<path d="M162.789 13.5537C162.789 13.0251 162.968 12.5814 163.327 12.2227C163.705 11.8451 164.158 11.6562 164.687 11.6562H169.02L168.283 9.56055C167.981 8.78646 167.679 8.05957 167.377 7.37988C167.094 6.68132 166.763 6.04883 166.386 5.48242C166.046 4.91602 165.659 4.61393 165.225 4.57617C164.771 4.61393 164.366 4.91602 164.007 5.48242C163.648 6.04883 163.318 6.68132 163.016 7.37988C162.732 8.05957 162.44 8.78646 162.138 9.56055L159.447 16.9238C159.258 17.3203 159.013 17.6507 158.711 17.915C158.428 18.1605 157.993 18.2832 157.408 18.2832C156.861 18.2832 156.408 18.0944 156.049 17.7168C155.709 17.3392 155.558 16.8861 155.596 16.3574C155.615 16.112 155.671 15.8854 155.766 15.6777L158.881 7.63477C159.749 5.52018 160.618 3.81152 161.486 2.50879C162.336 1.22493 163.582 0.573568 165.225 0.554688C166.848 0.573568 168.085 1.22493 168.935 2.50879C169.803 3.77376 170.672 5.48242 171.54 7.63477L174.655 15.6777C174.75 15.8854 174.806 16.112 174.825 16.3574C174.863 16.8861 174.702 17.3392 174.344 17.7168C174.004 18.0944 173.56 18.2832 173.013 18.2832C172.39 18.2832 171.927 18.1605 171.625 17.915C171.342 17.6507 171.106 17.3203 170.917 16.9238L170.379 15.4512H164.687C164.158 15.4512 163.714 15.2624 163.355 14.8848C162.978 14.526 162.789 14.0824 162.789 13.5537Z" fill="#0088FF"/>
</svg>
